<?xml version="1.0" encoding="utf-8"?>
<!-- Generator: Adobe Illustrator 14.0.0, SVG Export Plug-In . SVG Version: 6.00 Build 43363)  -->
<!DOCTYPE svg PUBLIC "-//W3C//DTD SVG 1.0//EN" "http://www.w3.org/TR/2001/REC-SVG-20010904/DTD/svg10.dtd">
<svg version="1.0" id="Layer_1" xmlns="http://www.w3.org/2000/svg" xmlns:xlink="http://www.w3.org/1999/xlink" x="0px" y="0px"
	 width="1770px" height="512px" viewBox="0 0 1770 512" enable-background="new 0 0 1770 512" xml:space="preserve">
<g>
	<path fill="#FFFFFF" d="M398.548,123.986h32.222v77.188h0.57c8.762-14.617,27.134-23.684,43.528-23.684
		c46.066,0,68.402,36.269,68.402,80.423c0,40.63-19.783,78.935-63.035,78.935c-19.788,0-40.985-4.961-50.599-24.848h-0.559v20.768
		h-30.53V123.99L398.548,123.986z M470.623,203.804c-27.125,0-40.985,21.35-40.985,53.512c0,30.403,14.987,53.22,40.985,53.22
		c29.4,0,40.422-26.903,40.422-53.22c-0.021-27.479-13.873-53.512-40.432-53.512"/>
	<path fill="#FFFFFF" d="M792.869,177.49c-19.221,0-35.901,10.233-45.513,26.91l-0.562-0.594V181.59h-30.528v128.747
		c-18.377,0.208-20.089,0.208-21.492,0.208c-5.933,0-7.634-3.217-7.634-11.404v-77.787c0-31.863-29.958-43.862-58.516-43.862
		c-32.222,0-64.156,11.4-66.41,50.299h32.215c1.418-16.375,14.129-23.984,32.222-23.984c13,0,30.243,3.226,30.243,20.474
		c0,19.591-20.634,16.956-43.812,21.351c-27.135,3.205-56.245,9.363-56.245,47.064c0,29.544,23.74,44.153,50.022,44.153
		c17.247,0,37.875-5.556,50.603-18.399c2.533,13.732,11.872,18.399,24.87,18.399c5.37,0,15.543-2.04,65.951-3.794v-0.298h0.201
		v-89.17c0-22.23,13.853-39.777,35.332-39.777c18.937,0,27.989,10.239,28.548,33.919v95.032H844.6V228.962
		c0.062-33.914-20.015-51.467-51.68-51.467 M654.98,281.887c0,21.049-22.049,28.659-36.181,28.659
		c-11.31,0-29.688-4.401-29.688-19.305c0-17.55,12.442-22.817,26.3-25.157c14.126-2.63,29.674-2.329,39.569-9.055V281.887z"/>
	<path fill="#FFFFFF" d="M1010.53,332.761h-30.531v-20.468h-0.559c-8.478,17.252-26.86,24.555-45.229,24.555
		c-46.064,0-68.401-35.383-68.401-80.697c0-54.678,31.378-78.657,63.322-78.657c18.364,0,38.711,7.022,48.606,23.679h0.575v-77.181
		h32.218v208.772L1010.53,332.761z M938.456,310.542c28.826,0,40.986-27.198,40.986-53.521c0-33.32-15.544-53.217-40.423-53.217
		c-30.246,0-40.988,27.781-40.988,54.969c0,26.026,12.433,51.763,40.43,51.763"/>
	<path fill="#FFFFFF" d="M1138.581,232.178c-2.546-18.422-15.546-28.371-33.351-28.371c-16.686,0-40.141,9.071-40.141,54.978
		c0,25.149,10.736,51.762,38.726,51.762c18.651,0,31.649-12.88,34.767-34.521h32.22c-5.938,39.181-29.393,60.821-66.986,60.821
		c-45.793,0-70.947-33.617-70.947-78.063c0-45.612,24.025-81.286,72.077-81.286c33.916,0,62.756,17.543,65.856,54.68h-32.166
		L1138.581,232.178z"/>
	<path fill="#FFFFFF" d="M1506.065,177.49c-21.197,0-35.049,9.655-45.784,25.148c-6.507-17.243-23.184-25.148-40.989-25.148
		c-23.184,0-35.337,10.233-44.946,25.148h-0.847v-21.05h-30.541v128.746c-18.374,0.209-20.085,0.209-21.497,0.209
		c-5.937,0-7.623-3.217-7.623-11.404v-77.787c0-31.863-29.961-43.862-58.521-43.862c-32.213,0-64.158,11.4-66.425,50.3h32.233
		c1.403-16.376,14.133-23.984,32.224-23.984c13,0,30.241,3.226,30.241,20.474c0,19.591-20.638,16.956-43.816,21.351
		c-27.135,3.205-56.249,9.362-56.249,47.064c0,29.544,23.737,44.153,50.029,44.153c17.247,0,37.875-5.556,50.597-18.399
		c2.544,13.732,11.868,18.399,24.881,18.399c5.364,0,15.544-2.04,65.485-3.794v-0.298h0.66v-89.759
		c0-25.145,15.27-39.188,31.947-39.188c19.502,0,25.726,11.105,25.726,31.882v97.069h32.214v-88.595
		c0-25.443,9.322-40.354,31.094-40.354c25.157,0,26.567,16.665,26.567,40.652v88.294h32.223v-104.38
		c0.019-36.851-18.068-50.884-48.858-50.884 M1281.628,281.887c0,21.049-22.041,28.659-36.183,28.659
		c-11.3,0-29.673-4.401-29.673-19.305c0-17.55,12.442-22.817,26.284-25.157c14.141-2.63,29.686-2.329,39.57-9.055L1281.628,281.887
		L1281.628,281.887z"/>
	<path fill="#FFFFFF" d="M1584.089,181.588h30.528v20.466h0.562c9.045-17.245,26.569-24.565,45.228-24.565
		c46.074,0,68.405,36.269,68.405,80.423c0,40.63-19.79,78.934-63.029,78.934c-18.653,0-38.732-7.014-48.899-23.67h-0.57v75.421
		h-32.225V181.602L1584.089,181.588z M1656.164,203.804c-27.135,0-40.989,21.35-40.989,53.512c0,30.403,14.979,53.22,40.989,53.22
		c29.391,0,40.422-26.903,40.422-53.22c0-27.479-13.87-53.512-40.43-53.512"/>
	<polygon fill="#FFFFFF" points="285.899,332.313 44.226,332.313 157.084,123.986 398.759,123.986 	"/>
</g>
</svg>
