<?xml version="1.0" encoding="utf-8"?>
<!-- Generator: Adobe Illustrator 14.0.0, SVG Export Plug-In . SVG Version: 6.00 Build 43363)  -->
<!DOCTYPE svg PUBLIC "-//W3C//DTD SVG 1.0//EN" "http://www.w3.org/TR/2001/REC-SVG-20010904/DTD/svg10.dtd">
<svg version="1.0" id="Layer_1" xmlns="http://www.w3.org/2000/svg" xmlns:xlink="http://www.w3.org/1999/xlink" x="0px" y="0px"
	 width="1770px" height="512px" viewBox="0 0 1770 512" enable-background="new 0 0 1770 512" xml:space="preserve">
<g>
	<path fill="#FFFFFF" d="M382.025,139.695h32.725v78.392h0.579c8.898-14.845,27.557-24.053,44.207-24.053
		c46.785,0,69.469,36.834,69.469,81.677c0,41.265-20.092,80.166-64.019,80.166c-20.096,0-41.624-5.037-51.388-25.235h-0.568v21.093
		h-31.006V139.699L382.025,139.695z M455.224,220.759c-27.548,0-41.624,21.684-41.624,54.347c0,30.877,15.221,54.051,41.624,54.051
		c29.859,0,41.053-27.324,41.053-54.051c-0.021-27.908-14.089-54.347-41.062-54.347"/>
	<path fill="#FFFFFF" d="M782.497,194.034c-19.521,0-36.461,10.392-46.223,27.329l-0.571-0.604v-22.563h-31.004v130.754
		c-18.663,0.213-20.402,0.213-21.827,0.213c-6.026,0-7.753-3.268-7.753-11.583v-79c0-32.36-30.425-44.546-59.429-44.546
		c-32.725,0-65.157,11.578-67.446,51.084h32.718c1.441-16.631,14.35-24.359,32.725-24.359c13.203,0,30.715,3.276,30.715,20.793
		c0,19.896-20.956,17.221-44.495,21.684c-27.559,3.255-57.123,9.509-57.123,47.799c0,30.005,24.11,44.842,50.802,44.842
		c17.516,0,38.466-5.643,51.393-18.686c2.572,13.946,12.058,18.686,25.258,18.686c5.454,0,15.786-2.071,66.98-3.853v-0.303h0.204
		v-90.562c0-22.577,14.069-40.397,35.883-40.397c19.232,0,28.426,10.399,28.993,34.449v96.514h32.738V246.308
		c0.063-34.443-20.328-52.27-52.486-52.27 M642.457,300.059c0,21.378-22.394,29.106-36.746,29.106
		c-11.487,0-30.151-4.471-30.151-19.605c0-17.824,12.636-23.173,26.709-25.55c14.347-2.671,30.138-2.365,40.187-9.195V300.059z"/>
	<path fill="#FFFFFF" d="M1003.554,351.727h-31.008V330.94h-0.567c-8.609,17.521-27.279,24.938-45.935,24.938
		c-46.784,0-69.468-35.935-69.468-81.955c0-55.531,31.868-79.884,64.31-79.884c18.65,0,39.314,7.132,49.364,24.048h0.585v-78.385
		h32.72v212.029L1003.554,351.727z M930.354,329.161c29.276,0,41.627-27.622,41.627-54.354c0-33.841-15.787-54.048-41.054-54.048
		c-30.719,0-41.629,28.215-41.629,55.828c0,26.432,12.628,52.57,41.062,52.57"/>
	<path fill="#FFFFFF" d="M1133.602,249.574c-2.586-18.709-15.788-28.813-33.87-28.813c-16.946,0-40.767,9.212-40.767,55.835
		c0,25.542,10.903,52.569,39.329,52.569c18.942,0,32.144-13.081,35.31-35.059h32.722c-6.03,39.791-29.851,61.77-68.031,61.77
		c-46.507,0-72.054-34.142-72.054-79.28c0-46.323,24.4-82.554,73.201-82.554c34.445,0,63.735,17.817,66.884,55.533h-32.668
		L1133.602,249.574z"/>
	<path fill="#FFFFFF" d="M1506.819,194.034c-21.527,0-35.596,9.805-46.499,25.54c-6.608-17.511-23.545-25.54-41.629-25.54
		c-23.545,0-35.888,10.392-45.646,25.54h-0.86v-21.377h-31.018V328.95c-18.661,0.212-20.398,0.212-21.832,0.212
		c-6.029,0-7.742-3.267-7.742-11.582v-79c0-32.36-30.429-44.546-59.434-44.546c-32.715,0-65.159,11.578-67.46,51.084h32.735
		c1.425-16.632,14.354-24.359,32.727-24.359c13.203,0,30.713,3.276,30.713,20.793c0,19.896-20.96,17.221-44.5,21.684
		c-27.558,3.255-57.127,9.509-57.127,47.799c0,30.004,24.108,44.842,50.811,44.842c17.516,0,38.466-5.643,51.386-18.686
		c2.583,13.945,12.054,18.686,25.269,18.686c5.448,0,15.786-2.071,66.507-3.853v-0.303h0.671v-91.159
		c0-25.537,15.508-39.799,32.445-39.799c19.807,0,26.127,11.279,26.127,32.379v98.583h32.717v-89.978
		c0-25.84,9.468-40.983,31.579-40.983c25.549,0,26.981,16.925,26.981,41.286v89.672h32.725V245.715
		c0.02-37.426-18.35-51.678-49.62-51.678 M1278.881,300.059c0,21.378-22.386,29.106-36.747,29.106
		c-11.477,0-30.136-4.471-30.136-19.605c0-17.824,12.636-23.173,26.693-25.55c14.361-2.671,30.149-2.365,40.188-9.195
		L1278.881,300.059L1278.881,300.059z"/>
	<path fill="#FFFFFF" d="M1586.061,198.196h31.004v20.786h0.57c9.187-17.514,26.984-24.949,45.933-24.949
		c46.793,0,69.473,36.835,69.473,81.678c0,41.265-20.099,80.166-64.013,80.166c-18.944,0-39.336-7.124-49.662-24.039h-0.58v76.597
		h-32.727V198.209L1586.061,198.196z M1659.259,220.759c-27.557,0-41.628,21.684-41.628,54.347
		c0,30.877,15.213,54.051,41.628,54.051c29.85,0,41.054-27.324,41.054-54.051c0-27.908-14.088-54.347-41.062-54.347"/>
	<polygon fill="#6399A8" points="267.618,351.272 22.175,351.272 136.793,139.695 382.239,139.695 	"/>
</g>
</svg>
