<?xml version="1.0" encoding="utf-8"?>
<!-- Generator: Adobe Illustrator 14.0.0, SVG Export Plug-In . SVG Version: 6.00 Build 43363)  -->
<!DOCTYPE svg PUBLIC "-//W3C//DTD SVG 1.0//EN" "http://www.w3.org/TR/2001/REC-SVG-20010904/DTD/svg10.dtd">
<svg version="1.0" id="Layer_1" xmlns="http://www.w3.org/2000/svg" xmlns:xlink="http://www.w3.org/1999/xlink" x="0px" y="0px"
	 width="1770px" height="512px" viewBox="0 0 1770 512" enable-background="new 0 0 1770 512" xml:space="preserve">
<g>
	<path fill="#FFFFFF" d="M1541.033,203.204h-21.894c-6.081,0-10.946,4.865-10.946,10.946v84.534c0,10.946-1.219,19.459-4.258,26.149
		c-5.473,12.165-15.812,18.245-30.407,18.245c-11.555,0-19.46-4.258-23.109-12.771c-2.432-4.865-3.04-12.164-3.04-21.284V214.76
		c0-6.081-4.864-10.946-10.946-10.946h-22.501c-6.082,0-10.946,4.865-10.946,10.946v94.263c0,18.853,2.432,33.446,7.298,43.178
		c8.513,17.636,24.933,26.756,49.867,26.756c8.514,0,15.811-1.217,22.501-3.648c6.081-2.433,12.771-6.688,19.46-12.771
		c2.433-1.822,4.256-4.255,6.082-6.687c1.823-2.434,2.433-4.259,3.04-4.868v13.38c0,6.081,4.865,10.946,10.947,10.946h20.068
		c6.081,0,10.946-4.865,10.946-10.946V214.149C1551.979,208.069,1547.113,203.204,1541.033,203.204z"/>
	<path fill="#FFFFFF" d="M1184.054,145.431h-21.892c-6.082,0-10.948,4.865-10.948,10.946v207.984
		c0,6.081,4.866,10.946,10.948,10.946h21.892c6.083,0,10.948-4.865,10.948-10.946V156.377
		C1195,150.296,1190.136,145.431,1184.054,145.431z"/>
	<g>
		<path fill="#FFFFFF" d="M796.06,203.204h-21.894c-6.081,0-10.946,4.865-10.946,10.946v150.211c0,6.081,4.865,10.946,10.946,10.946
			h21.894c6.081,0,10.946-4.865,10.946-10.946V214.149C807.006,208.069,802.141,203.204,796.06,203.204z"/>
		<path fill="#FFFFFF" d="M762.611,174.622c0,6.081,4.865,10.946,10.948,10.946h21.892c6.082,0,10.948-4.865,10.948-10.946v-18.245
			c0-6.081-4.866-10.946-10.948-10.946h-21.892c-6.083,0-10.948,4.865-10.948,10.946V174.622z"/>
	</g>
	<path fill="#FFFFFF" d="M1363.456,352.199c-13.988,17.636-35.272,26.149-63.855,26.149c-28.582,0-49.866-8.514-63.853-26.149
		c-13.988-17.639-21.287-38.313-21.287-62.64s7.299-45.004,21.287-62.639c13.986-17.635,35.271-26.757,63.853-26.757
		c28.584,0,49.867,9.121,63.855,26.757c13.986,17.636,21.284,38.313,21.284,62.639
		C1384.133,313.886,1377.442,334.561,1363.456,352.199z M1328.184,327.873c6.688-9.122,10.338-21.894,10.338-38.923
		c0-17.026-3.65-29.799-10.338-38.92c-6.689-9.123-16.421-13.379-29.191-13.379s-22.503,4.255-29.19,13.379
		c-6.69,9.122-10.339,21.893-10.339,38.92c0,16.42,3.648,29.801,10.339,38.923c6.688,9.123,16.42,13.379,29.19,13.379
		C1311.764,341.861,1321.494,336.996,1328.184,327.873z"/>
	<path fill="#FFFFFF" d="M1722.258,145.431h-21.893c-6.082,0-10.947,4.865-10.947,10.946v70.544
		c-4.864-7.904-10.947-13.987-18.851-18.242c-7.906-4.258-17.028-6.69-26.76-6.69c-21.893,0-39.527,7.907-52.299,24.326
		c-12.771,16.42-19.461,38.92-19.461,67.504c0,24.934,6.689,45.002,20.067,60.814c13.382,15.81,29.802,23.717,49.261,23.717
		c11.555,0,21.893-2.433,29.8-6.689c7.904-4.255,15.203-11.555,21.285-21.894v15.203c0,6.084,4.864,10.949,10.948,10.949h20.068
		c6.081,0,10.946-4.865,10.946-10.949V156.377C1733.205,150.296,1728.341,145.431,1722.258,145.431z M1680.905,327.264
		c-6.69,9.123-15.811,13.988-27.974,13.988c-12.164,0-21.286-4.865-27.367-13.988c-6.081-9.121-9.123-21.284-9.123-37.096
		c0-14.596,3.042-26.15,9.123-35.878c6.081-9.732,15.203-14.598,27.975-14.598c8.514,0,15.811,2.432,21.894,7.906
		c10.338,8.514,15.203,23.11,15.203,43.787C1690.636,305.98,1686.986,318.141,1680.905,327.264z"/>
	<path fill="#FFFFFF" d="M975.461,358.888L975.461,358.888l-46.826-69.328l45.004-69.328l0,0c1.215-1.825,1.215-3.648,1.215-5.474
		c0-6.081-4.865-10.946-10.947-10.946H939.58c-4.255,0-7.904,2.432-9.729,5.471l-25.542,45.61l-26.15-45.61l0,0
		c-1.825-3.039-5.473-5.471-9.731-5.471h-26.149c-6.081,0-10.946,4.865-10.946,10.946c0,1.825,0.605,3.649,1.216,5.474l0,0
		l44.394,69.936l-46.827,69.329l0,0c-1.216,1.822-1.216,3.647-1.216,5.471c0,6.084,4.865,10.948,10.946,10.948h25.542
		c4.255,0,7.906-2.433,9.73-5.474l0,0l27.368-47.436l26.756,47.436c1.825,3.041,5.474,5.474,9.732,5.474h27.365
		c6.083,0,10.947-4.864,10.947-10.948C976.678,362.535,976.678,360.713,975.461,358.888z"/>
	<g>
		<path fill="#FFFFFF" d="M1131.146,323.008c0-1.217,0-1.825-0.606-3.041c0-1.216-0.609-1.824-1.217-3.041
			c-1.825-3.039-5.474-5.471-9.731-5.471h-21.893c-4.867,0-9.732,3.648-10.948,8.513c-1.217,4.865-3.648,9.73-6.082,13.379
			c-4.257,5.474-11.555,8.517-21.893,8.517c-14.595,0-24.326-6.69-29.191-20.678c-3.039-7.297-4.255-17.028-4.255-29.191
			c0-12.771,1.216-23.109,4.255-31.014c5.474-14.597,15.203-21.893,30.408-21.893c10.338,0,17.635,3.649,22.5,10.339
			c1.824,2.433,3.041,5.471,4.258,8.513l0,0c0,1.218,0.608,1.823,1.216,3.041c1.824,3.04,5.474,5.472,9.729,5.472h23.11
			c6.082,0,10.948-4.864,10.948-10.945c0-1.216,0-1.825-0.608-3.042l0,0c-3.649-16.419-10.947-28.582-21.285-35.88
			c-13.381-9.12-30.406-13.985-51.084-13.985c-24.324,0-43.786,7.903-57.773,23.717c-13.987,15.81-20.677,38.314-20.677,66.895
			c0,25.543,6.082,46.22,18.853,62.03c12.771,15.813,32.231,23.718,58.991,23.718s46.827-9.729,60.814-28.583
			c5.471-7.296,9.123-15.203,11.555-23.109c0-0.605,0.606-1.215,0.606-1.822l0,0
			C1131.146,324.225,1131.146,323.615,1131.146,323.008z"/>
	</g>
	<g>
		<path fill="#FFFFFF" d="M724.299,145.431h-56.557c-4.257,0-7.906,2.433-9.729,5.471c-0.609,0.609-0.609,1.825-1.216,2.433
			L625.78,307.196l-31.623-154.469c0-1.216-0.608-1.825-1.216-3.041c-1.825-3.039-4.865-5.471-9.123-5.471h-57.772
			c-6.082,0-10.949,4.865-10.949,10.946v209.201c0,6.081,4.868,10.946,10.949,10.946h21.893c6.081,0,10.946-4.865,10.946-10.946
			c0,0,0-170.28,0-174.536l40.137,177.577l0,0c0,1.216,0.609,1.823,1.216,3.039c1.825,3.041,5.474,5.474,9.732,5.474h28.581
			c4.258,0,7.907-2.433,9.73-5.474c0.609-0.606,0.609-1.824,1.216-3.041l0.609-3.039l40.137-174.536c0,4.255,0,174.536,0,174.536
			c0,6.081,4.866,10.946,10.949,10.946h21.892c6.083,0,10.948-4.865,10.948-10.946V156.377
			C735.246,150.296,730.381,145.431,724.299,145.431z"/>
	</g>
	<g>
		<path fill="#FFFFFF" d="M425.093,400.85c-3.039,0-5.471-0.606-7.903-2.433c-6.69-4.258-8.515-13.379-3.649-20.068
			c13.378-20.068,20.068-43.178,20.068-67.504s-7.298-47.434-20.068-67.504c-4.258-6.688-2.434-15.81,3.649-20.069
			c6.688-4.255,15.203-2.432,20.068,3.649c16.42,24.326,24.934,53.517,24.934,83.317c0,29.798-8.514,58.382-24.934,83.315
			C434.215,398.417,429.351,400.85,425.093,400.85L425.093,400.85z"/>
	</g>
	<g>
		<path fill="#FFFFFF" d="M383.74,377.739c-3.04,0-5.473-0.605-7.906-2.433c-6.687-4.254-8.514-13.378-3.648-20.068
			c8.515-12.771,13.381-27.974,13.381-43.785c0-15.813-4.866-31.016-13.381-43.788c-4.255-6.689-2.433-15.809,3.648-20.068
			c6.69-4.258,15.204-2.433,20.07,3.648c12.164,17.637,18.244,38.313,18.244,60.208c0,21.284-6.082,41.962-18.244,60.205
			C392.862,375.308,388.604,377.739,383.74,377.739L383.74,377.739z"/>
	</g>
	<path fill="#FFFFFF" d="M316.844,248.207c-5.474-57.775-54.125-102.776-113.114-102.776c-48.651,0-92.438,31.624-107.641,77.234
		c-37.096,5.471-65.071,37.095-65.071,76.017c0,42.57,34.056,76.624,76.626,76.624h195.821c35.274,0,63.855-28.581,63.855-64.462
		C367.32,280.438,345.427,254.894,316.844,248.207z M302.857,346.726H107.036c-26.15,0-48.043-21.285-48.043-48.044
		c0-26.152,21.284-48.042,48.043-48.042c12.771,0,24.934,4.865,34.056,13.988c5.474,5.471,14.596,5.471,20.069,0
		c5.473-5.474,5.473-14.597,0-20.678c-9.73-9.729-21.893-16.419-35.272-20.068c13.379-29.801,43.787-49.868,77.842-49.868
		c46.827,0,85.14,38.313,85.14,85.141c0,9.122-1.216,18.244-4.257,26.758c-2.433,7.297,1.825,15.81,9.123,18.242
		c1.216,0.609,3.041,0.609,4.257,0.609c6.081,0,11.555-3.648,13.378-9.73c1.825-5.474,3.042-11.555,4.258-17.636
		c13.378,4.865,22.501,18.242,22.501,32.839C338.738,330.912,322.318,346.726,302.857,346.726z"/>
</g>
</svg>
