<?xml version="1.0" encoding="utf-8"?>
<!-- Generator: Adobe Illustrator 14.0.0, SVG Export Plug-In . SVG Version: 6.00 Build 43363)  -->
<!DOCTYPE svg PUBLIC "-//W3C//DTD SVG 1.0//EN" "http://www.w3.org/TR/2001/REC-SVG-20010904/DTD/svg10.dtd">
<svg version="1.0" id="Layer_1" xmlns="http://www.w3.org/2000/svg" xmlns:xlink="http://www.w3.org/1999/xlink" x="0px" y="0px"
	 width="92.984px" height="53.006px" viewBox="0 0 92.984 53.006" enable-background="new 0 0 92.984 53.006" xml:space="preserve">
<path fill="#FFFFFF" d="M1.053,24.152c-0.194,0-0.348,0.15-0.373,0.364L0,29.681l0.68,5.076c0.025,0.215,0.179,0.363,0.373,0.363
	c0.188,0,0.341-0.148,0.371-0.361l0,0v-0.001c0,0,0,0,0,0.001l0.806-5.078l-0.806-5.166C1.395,24.302,1.24,24.152,1.053,24.152z
	 M4.877,21.33c-0.032-0.222-0.191-0.375-0.387-0.375c-0.197,0-0.36,0.158-0.388,0.375c0,0.002-0.914,8.351-0.914,8.351l0.914,8.166
	c0.026,0.219,0.189,0.377,0.388,0.377c0.194,0,0.354-0.154,0.386-0.375l1.04-8.168L4.877,21.33z M19.281,13.627
	c-0.375,0-0.686,0.307-0.703,0.697L17.85,29.688l0.729,9.929c0.019,0.388,0.328,0.694,0.703,0.694c0.372,0,0.682-0.308,0.703-0.697
	v0.004l0.823-9.93l-0.823-15.365C19.963,13.934,19.654,13.627,19.281,13.627z M11.826,18.967c-0.288,0-0.523,0.23-0.546,0.537
	l-0.82,10.181l0.82,9.849c0.021,0.305,0.258,0.534,0.546,0.534c0.284,0,0.52-0.229,0.545-0.534l0.932-9.849l-0.932-10.183
	C12.346,19.197,12.111,18.967,11.826,18.967z M26.857,40.31c0.466,0,0.844-0.375,0.862-0.854l0.714-9.763L27.72,9.238
	c-0.019-0.48-0.396-0.855-0.862-0.855c-0.469,0-0.848,0.376-0.862,0.856c0,0.001-0.634,20.454-0.634,20.454l0.634,9.766
	C26.01,39.935,26.389,40.31,26.857,40.31z M42.367,40.356c0.64,0,1.168-0.527,1.18-1.176v0.008v-0.008l0.498-9.482L43.547,6.075
	c-0.011-0.647-0.54-1.175-1.18-1.175c-0.642,0-1.17,0.527-1.181,1.176L40.742,29.69c0,0.016,0.444,9.496,0.444,9.496
	C41.198,39.829,41.727,40.356,42.367,40.356z M34.553,40.319c0.557,0,1.006-0.447,1.021-1.018v0.008l0.605-9.615L35.573,9.092
	c-0.016-0.57-0.465-1.016-1.021-1.016c-0.561,0-1.01,0.446-1.021,1.016l-0.539,20.604l0.54,9.611
	C33.543,39.872,33.992,40.319,34.553,40.319z M15.539,40.229c0.331,0,0.599-0.266,0.624-0.615l0.878-9.93l-0.878-9.448
	c-0.024-0.349-0.292-0.612-0.624-0.612c-0.336,0-0.604,0.265-0.625,0.616l-0.773,9.443l0.773,9.93
	C14.936,39.964,15.203,40.229,15.539,40.229z M8.143,39.685c0.242,0,0.438-0.19,0.466-0.455l0.986-9.547L8.61,19.774
	c-0.028-0.265-0.225-0.456-0.467-0.456c-0.245,0-0.44,0.192-0.466,0.456c0,0.001-0.868,9.909-0.868,9.909l0.868,9.545
	C7.701,39.493,7.897,39.685,8.143,39.685z M38.445,8.749c-0.604,0-1.09,0.481-1.102,1.097l-0.492,19.85l0.492,9.553
	c0.012,0.607,0.496,1.089,1.102,1.089c0.604,0,1.087-0.479,1.101-1.096v0.008l0.552-9.552L39.545,9.844
	C39.531,9.23,39.049,8.749,38.445,8.749z M23.055,40.33c0.418,0,0.763-0.341,0.783-0.776l0.768-9.863l-0.768-18.877
	c-0.021-0.436-0.365-0.776-0.783-0.776c-0.422,0-0.766,0.341-0.784,0.776c0,0.001-0.68,18.877-0.68,18.877l0.681,9.867
	C22.289,39.989,22.633,40.33,23.055,40.33z M31.631,39.399v-0.006l0.66-9.699L31.631,8.55c-0.016-0.525-0.43-0.937-0.941-0.937
	c-0.514,0-0.928,0.411-0.941,0.937l-0.586,21.143l0.587,9.705c0.014,0.521,0.428,0.932,0.94,0.932s0.925-0.411,0.941-0.934V39.399z
	 M81.549,17.506c-1.567,0-3.063,0.317-4.424,0.888C76.215,8.086,67.571,0,57.027,0c-2.579,0-5.095,0.508-7.315,1.367
	c-0.863,0.334-1.093,0.678-1.102,1.345v36.301c0.01,0.699,0.553,1.282,1.235,1.352c0.029,0.003,31.499,0.019,31.703,0.019
	c6.316,0,11.437-5.12,11.437-11.438C92.985,22.628,87.865,17.506,81.549,17.506z M46.272,2.68c-0.687,0-1.251,0.564-1.261,1.257
	l-0.516,25.765l0.517,9.352c0.009,0.682,0.573,1.245,1.26,1.245c0.686,0,1.249-0.563,1.26-1.256v0.011l0.561-9.352L47.531,3.935
	C47.521,3.244,46.957,2.68,46.272,2.68z M9.236,47.653c-1.353-0.317-1.719-0.487-1.719-1.023c0-0.378,0.306-0.77,1.219-0.77
	c0.781,0,1.392,0.318,1.939,0.879l1.231-1.194c-0.806-0.841-1.78-1.341-3.108-1.341c-1.684,0-3.049,0.951-3.049,2.5
	c0,1.682,1.098,2.182,2.67,2.547c1.608,0.365,1.901,0.609,1.901,1.159c0,0.646-0.477,0.927-1.486,0.927
	c-0.817,0-1.585-0.279-2.184-0.977l-1.23,1.098c0.646,0.951,1.891,1.548,3.315,1.548c2.33,0,3.354-1.097,3.354-2.718
	C12.09,48.435,10.59,47.972,9.236,47.653z M17.09,44.204c-2.328,0-3.705,1.804-3.705,4.4c0,2.598,1.377,4.4,3.705,4.4
	s3.707-1.803,3.707-4.4C20.797,46.008,19.418,44.204,17.09,44.204z M17.09,51.312c-1.377,0-1.951-1.183-1.951-2.705
	c0-1.524,0.574-2.707,1.951-2.707c1.379,0,1.951,1.183,1.951,2.707C19.041,50.129,18.469,51.312,17.09,51.312z M27.686,49.13
	c0,1.365-0.672,2.207-1.756,2.207c-1.085,0-1.743-0.865-1.743-2.23v-4.77h-1.708v4.793c0,2.486,1.392,3.876,3.451,3.876
	c2.17,0,3.463-1.427,3.463-3.899v-4.77h-1.707V49.13z M36.756,47.946c0,0.477,0.024,1.549,0.024,1.865
	c-0.11-0.22-0.391-0.646-0.598-0.963l-3.024-4.513h-1.634v8.536h1.684v-3.756c0-0.477-0.024-1.549-0.024-1.865
	c0.109,0.219,0.392,0.646,0.598,0.964l3.134,4.657h1.523v-8.536h-1.683V47.946z M43.303,44.337h-2.67v8.536h2.547
	c2.195,0,4.366-1.269,4.366-4.269C47.546,45.483,45.741,44.337,43.303,44.337z M43.18,51.215h-0.84v-5.219h0.902
	c1.805,0,2.549,0.864,2.549,2.608C45.791,50.166,44.973,51.215,43.18,51.215z M52.825,45.897c0.768,0,1.256,0.342,1.561,0.928
	l1.585-0.73c-0.537-1.109-1.513-1.891-3.122-1.891c-2.229,0-3.791,1.804-3.791,4.4c0,2.694,1.499,4.4,3.73,4.4
	c1.549,0,2.572-0.719,3.157-1.926l-1.438-0.854c-0.451,0.756-0.903,1.086-1.671,1.086c-1.28,0-2.024-1.172-2.024-2.707
	C50.812,47.021,51.546,45.897,52.825,45.897z M59.156,44.337h-1.707v8.536h5.13v-1.685h-3.423V44.337z M67.076,44.204
	c-2.33,0-3.707,1.804-3.707,4.4c0,2.598,1.377,4.4,3.707,4.4c2.327,0,3.706-1.803,3.706-4.4
	C70.782,46.008,69.404,44.204,67.076,44.204z M67.076,51.312c-1.379,0-1.951-1.183-1.951-2.705c0-1.524,0.572-2.707,1.951-2.707
	c1.376,0,1.948,1.183,1.948,2.707C69.025,50.129,68.452,51.312,67.076,51.312z M77.67,49.13c0,1.365-0.669,2.207-1.754,2.207
	c-1.087,0-1.744-0.865-1.744-2.23v-4.77h-1.707v4.793c0,2.486,1.39,3.876,3.451,3.876c2.17,0,3.462-1.427,3.462-3.899v-4.77H77.67
	V49.13z M84.181,44.337h-2.669v8.536h2.547c2.196,0,4.365-1.269,4.365-4.269C88.424,45.483,86.62,44.337,84.181,44.337z
	 M84.059,51.215h-0.841v-5.219h0.903c1.803,0,2.547,0.864,2.547,2.608C86.668,50.166,85.851,51.215,84.059,51.215z"/>
</svg>
